<?xml version="1.0" standalone="no"?>
<!DOCTYPE svg PUBLIC "-//W3C//DTD SVG 20010904//EN"
 "http://www.w3.org/TR/2001/REC-SVG-20010904/DTD/svg10.dtd">
<svg version="1.0" xmlns="http://www.w3.org/2000/svg"
 width="1002.000000pt" height="1002.000000pt" viewBox="0 0 1002.000000 1002.000000"
 preserveAspectRatio="xMidYMid meet">
<metadata>
Created by potrace 1.14, written by Peter Selinger 2001-2017
</metadata>
<g transform="translate(0.000000,1002.000000) scale(0.100000,-0.100000)"
fill="#000000" stroke="none">
<path d="M4336 9768 c-14 -43 -88 -302 -90 -312 -3 -14 -26 -91 -78 -261 -21
-71 -41 -139 -43 -150 -3 -11 -14 -50 -26 -87 -11 -37 -20 -69 -19 -70 1 -2
-4 -16 -10 -33 -7 -16 -13 -37 -15 -45 -2 -9 -16 -56 -31 -105 -29 -95 -33
-110 -36 -137 -1 -10 -6 -18 -10 -18 -4 0 -8 -8 -8 -17 0 -10 -9 -47 -20 -83
-59 -195 -82 -274 -85 -289 -2 -9 -8 -29 -15 -46 -6 -16 -11 -32 -11 -35 0 -7
-29 -111 -36 -130 -3 -8 -8 -24 -10 -34 -2 -11 -5 -21 -6 -23 -6 -6 -2088 -3
-2098 2 -11 7 -10 56 -11 -627 0 -313 -1 -568 -3 -568 -2 0 -56 20 -122 46
-65 25 -125 47 -133 49 -14 3 -89 32 -150 58 -14 5 -30 11 -37 13 -6 1 -83 29
-170 63 -88 34 -165 61 -171 61 -6 0 -15 -12 -18 -27 -4 -16 -20 -59 -36 -98
-16 -38 -31 -78 -33 -87 -2 -10 -10 -32 -18 -50 -8 -18 -20 -49 -27 -68 -7
-19 -19 -50 -27 -69 -8 -18 -16 -39 -17 -45 -2 -11 -24 -70 -91 -246 -18 -47
-54 -141 -80 -210 -25 -69 -49 -132 -52 -140 -3 -8 -7 -19 -9 -25 -2 -9 -92
-245 -113 -300 -5 -11 -9 -23 -10 -27 -1 -5 -12 -33 -26 -63 -13 -31 -24 -58
-24 -60 0 -5 -8 -27 -64 -177 l-26 -67 87 -33 c48 -18 90 -32 95 -30 4 1 7 -3
7 -10 0 -6 3 -8 6 -5 4 3 16 1 28 -5 11 -7 30 -13 40 -15 11 -2 25 -8 33 -14
7 -6 13 -8 13 -4 0 4 6 3 12 -2 7 -6 48 -23 91 -38 43 -15 79 -31 82 -35 2 -3
-64 -42 -148 -85 -84 -43 -155 -82 -158 -87 -3 -6 -10 -10 -15 -9 -11 0 -145
-68 -159 -80 -5 -5 -17 -9 -27 -9 -10 0 -18 -4 -18 -9 0 -5 -15 -15 -33 -23
-17 -7 -60 -28 -95 -46 l-62 -32 76 -148 c42 -81 96 -183 119 -227 23 -44 73
-138 110 -210 37 -71 89 -170 115 -220 26 -49 70 -133 97 -185 27 -52 55 -106
62 -120 22 -39 28 -52 52 -99 13 -25 40 -76 61 -114 21 -39 38 -76 38 -83 0
-7 3 -14 8 -16 4 -1 21 -30 38 -63 16 -33 60 -117 97 -187 37 -70 87 -166 111
-213 24 -47 49 -91 56 -99 6 -8 13 -21 14 -28 1 -7 4 -17 8 -23 3 -5 32 -59
63 -120 32 -60 61 -115 66 -121 5 -6 6 -14 2 -17 -3 -4 -2 -7 4 -7 6 0 14 -11
17 -24 3 -14 12 -31 19 -38 6 -8 39 -68 73 -133 166 -328 240 -471 250 -481 6
-7 17 -27 24 -46 7 -18 20 -41 28 -50 8 -10 12 -18 9 -18 -4 0 6 -21 21 -48
15 -26 39 -69 52 -97 14 -27 28 -51 33 -53 4 -2 7 -11 7 -21 0 -9 4 -21 9 -27
5 -5 33 -56 63 -114 144 -274 211 -403 353 -675 133 -255 160 -305 165 -302 3
1 41 20 85 42 44 22 82 43 85 46 3 4 32 19 65 34 33 16 62 31 65 35 3 3 21 12
40 20 19 8 37 16 40 19 3 3 50 29 105 58 55 28 129 66 165 85 36 18 67 35 70
38 3 3 12 6 20 8 8 2 17 8 18 13 2 5 12 9 22 9 10 0 20 3 22 8 5 11 108 64
108 55 0 -4 4 -3 8 2 4 6 34 24 67 40 33 17 62 32 65 35 3 3 32 19 65 35 33
17 62 32 65 35 3 3 46 25 95 49 50 25 102 53 118 63 15 11 27 16 27 12 0 -3 6
-2 13 4 12 10 150 83 332 176 55 28 102 53 105 56 5 5 119 64 288 148 37 19
69 38 70 43 2 5 9 9 16 9 7 0 55 23 106 50 51 28 98 52 104 53 6 1 13 5 16 8
3 3 50 30 105 59 l100 53 655 2 c360 1 660 0 665 -2 6 -2 12 -13 13 -26 1 -12
4 -39 6 -60 2 -21 6 -40 9 -43 3 -3 3 -12 0 -20 -3 -8 -1 -14 5 -14 5 0 8 -10
7 -22 -1 -13 3 -57 10 -98 13 -73 22 -129 30 -187 3 -27 11 -72 20 -123 5 -26
15 -101 19 -136 6 -44 15 -46 115 -29 14 2 58 9 96 15 39 6 81 13 95 15 14 2
70 11 125 20 55 8 109 17 120 19 11 2 43 7 70 10 28 4 75 11 105 16 30 5 73
12 95 15 22 3 49 7 60 10 11 2 40 7 65 10 50 7 85 13 85 15 0 1 20 3 44 6 25
2 56 6 70 9 14 3 46 8 71 11 25 3 46 10 48 14 2 5 9 7 17 4 7 -3 87 6 177 21
202 33 238 38 261 37 9 0 17 2 17 6 0 4 12 8 28 8 37 1 116 12 147 20 22 5 25
11 21 33 -5 24 -18 104 -31 196 -3 23 -8 52 -10 65 -7 35 -17 99 -31 195 -3
28 -9 59 -11 70 -3 11 -6 36 -8 55 -2 19 -4 35 -5 35 -3 0 -4 11 -14 91 -4 28
-9 60 -11 72 -3 12 -7 31 -9 42 -6 25 4 25 124 0 52 -10 109 -21 125 -24 17
-3 41 -7 55 -11 14 -3 39 -8 55 -10 31 -6 96 -18 105 -20 12 -3 77 -16 100
-19 14 -3 25 -5 25 -6 0 -1 13 -3 28 -5 27 -4 119 -21 167 -32 14 -4 30 -7 35
-7 9 -1 90 -17 105 -21 23 -5 117 -18 123 -17 4 1 7 -2 7 -6 0 -5 10 -8 23 -7
12 1 27 0 32 -4 37 -21 67 -8 71 33 1 12 4 32 7 46 4 14 8 36 11 50 2 14 18
97 36 185 17 88 34 171 36 185 2 14 7 39 11 55 4 17 8 38 9 48 1 9 2 18 4 20
2 2 4 16 14 75 6 41 43 225 61 312 8 36 16 79 19 95 3 17 8 46 12 65 3 19 8
44 10 55 1 11 5 31 9 45 3 14 7 36 10 50 3 14 7 36 10 50 3 14 8 40 11 59 3
18 8 43 10 55 3 11 7 30 9 41 2 11 6 30 8 41 3 12 8 37 11 55 3 19 8 45 11 59
17 86 76 390 80 415 7 47 17 89 23 99 3 5 6 27 8 50 1 23 8 61 14 86 6 25 13
56 15 70 2 14 9 48 15 75 16 74 18 87 24 127 3 21 10 58 16 83 6 25 13 62 16
83 7 41 12 65 14 72 1 3 3 10 4 15 2 13 17 94 22 120 2 11 6 31 9 45 3 14 7
36 11 50 11 46 17 177 8 183 -5 3 -25 8 -44 11 -19 3 -46 8 -60 11 -14 3 -38
8 -55 10 -16 2 -50 9 -75 14 -25 5 -61 12 -80 16 -19 3 -44 8 -55 10 -11 2
-33 7 -50 10 -58 11 -65 16 -66 43 0 15 -3 36 -5 47 -3 11 -7 36 -10 55 -3 19
-7 46 -11 60 -3 14 -7 43 -9 64 -3 22 -7 51 -9 65 -3 14 -8 42 -11 61 -3 19
-9 60 -14 90 -11 61 -21 131 -26 170 -1 14 -3 25 -4 25 -1 0 -3 9 -4 20 -2 11
-9 56 -15 100 -7 44 -15 96 -17 115 -3 19 -7 46 -11 60 -3 14 -7 43 -9 64 -3
22 -7 51 -10 65 -3 14 -7 40 -9 56 -2 17 -6 46 -10 65 -6 33 -12 72 -20 130
-2 14 -8 52 -14 85 -6 33 -14 80 -17 105 -3 25 -7 56 -10 70 -3 14 -7 45 -11
70 -3 25 -6 50 -7 55 -3 21 -17 34 -35 30 -21 -4 -74 -12 -128 -21 -21 -3 -49
-7 -63 -10 -116 -19 -114 -20 -94 31 4 11 8 25 9 30 2 6 13 43 25 84 12 41 23
81 25 90 2 9 22 75 43 146 71 235 114 380 117 396 2 9 11 39 20 65 9 27 18 56
20 64 2 8 20 71 40 140 20 69 39 134 42 145 3 11 7 27 10 35 3 8 8 23 9 33 2
9 13 44 24 77 24 71 25 84 5 76 -8 -3 -15 -1 -15 4 0 6 -7 10 -15 10 -8 0 -34
6 -57 14 -24 7 -63 19 -88 26 -25 7 -52 15 -60 18 -8 3 -19 6 -25 8 -5 1 -57
17 -115 34 -58 17 -109 32 -115 34 -5 1 -30 9 -55 16 -25 7 -50 14 -56 16 -5
1 -73 21 -149 44 -76 23 -146 44 -154 45 -9 2 -17 4 -18 5 -3 3 -5 3 -48 14
-25 7 -82 23 -143 42 -7 2 -14 4 -17 4 -3 1 -17 5 -32 10 -138 42 -241 73
-253 75 -8 2 -16 4 -17 5 -2 2 -6 3 -10 4 -5 2 -28 8 -53 16 -25 7 -49 14 -55
15 -29 7 -165 48 -200 61 -22 9 -42 15 -45 15 -3 -1 -30 6 -60 15 -30 9 -59
17 -65 18 -12 2 -121 35 -155 47 -31 10 -241 71 -255 73 -5 1 -14 4 -20 7 -5
4 -34 12 -63 19 -28 6 -55 16 -58 21 -3 5 -9 7 -13 5 -4 -3 -72 15 -151 39
-79 24 -147 42 -152 39 -4 -3 -8 0 -8 5 0 6 -3 10 -7 9 -5 0 -15 1 -23 4 -12
5 -99 29 -120 34 -3 0 -12 3 -20 7 -12 5 -82 25 -110 32 -3 0 -32 9 -65 19
-33 10 -67 20 -75 22 -8 2 -44 12 -80 23 -36 11 -128 38 -205 61 -77 22 -185
55 -240 71 -93 28 -125 37 -150 42 -5 2 -15 5 -20 9 -6 3 -28 9 -50 13 -22 4
-46 13 -54 19 -8 6 -16 10 -18 9 -1 -2 -4 -3 -5 -2 -2 0 -10 2 -19 4 -8 1 -53
14 -100 28 -46 14 -118 35 -159 47 -41 12 -113 33 -160 48 -47 15 -89 26 -94
24 -4 -1 -13 1 -20 6 -9 8 -43 18 -86 27 -3 0 -21 6 -41 13 -20 7 -45 14 -55
17 -10 2 -50 13 -89 25 -38 12 -80 24 -94 27 -13 2 -28 6 -33 9 -4 3 -10 -1
-12 -8z"/>
</g>
</svg>
